<svg width="353" height="328" viewBox="0 0 353 328" fill="none" xmlns="http://www.w3.org/2000/svg">
<g clip-path="url(#clip0_207_434)">
<path d="M51.6797 303.11C120.59 335.95 232.31 335.96 301.22 303.11C370.13 270.26 370.12 217.02 301.22 184.18C232.32 151.34 120.59 151.34 51.6797 184.18C-17.2303 217.02 -17.2203 270.27 51.6797 303.11Z" fill="#F5F5F5"/>
<path d="M300.98 278.85C313.672 278.85 323.96 273.948 323.96 267.9C323.96 261.852 313.672 256.95 300.98 256.95C288.289 256.95 278 261.852 278 267.9C278 273.948 288.289 278.85 300.98 278.85Z" fill="#EBEBEB"/>
<path d="M46.4492 269.46L54.5792 264.77C59.1184 261.066 62.5733 256.205 64.5792 250.7C67.0892 243.78 66.7392 238.52 64.9392 235.88C62.7292 232.63 56.9992 233.2 56.7692 240.04C56.2892 253.52 52.3592 262.87 46.4492 269.46Z" fill="#E2A340"/>
<path opacity="0.2" d="M46.4492 269.46L54.5792 264.77C59.1184 261.066 62.5733 256.205 64.5792 250.7C67.0892 243.78 66.7392 238.52 64.9392 235.88C62.7292 232.63 56.9992 233.2 56.7692 240.04C56.2892 253.52 52.3592 262.87 46.4492 269.46Z" fill="black"/>
<path d="M46.4499 269.96C46.3441 269.959 46.2413 269.924 46.1565 269.86C46.0718 269.797 46.0093 269.708 45.9782 269.607C45.947 269.506 45.9488 269.397 45.9833 269.297C46.0177 269.197 46.0831 269.111 46.1699 269.05C64.9699 256.05 61.3299 237.92 61.2899 237.74C61.2761 237.674 61.2754 237.607 61.2878 237.541C61.3002 237.475 61.3254 237.412 61.3621 237.356C61.3988 237.299 61.4462 237.251 61.5016 237.213C61.557 237.175 61.6193 237.149 61.6849 237.135C61.7506 237.121 61.8183 237.12 61.8843 237.133C61.9502 237.145 62.0131 237.17 62.0692 237.207C62.1254 237.244 62.1738 237.291 62.2117 237.347C62.2496 237.402 62.2761 237.464 62.2899 237.53C62.2899 237.72 66.1299 256.47 46.7699 269.87C46.676 269.934 46.5636 269.966 46.4499 269.96Z" fill="white"/>
<path d="M30.1595 278.87C30.1595 278.87 27.3295 276.57 28.0095 273.45C28.6895 270.33 30.5195 268.09 27.3895 264.07C24.2595 260.05 23.3895 254.69 27.1295 251.79C29.9795 249.54 34.4295 252.72 36.0295 246.79C37.2095 242.45 36.8095 232.84 42.3395 229.64C47.8695 226.44 51.3395 231.26 50.4695 237.78C49.7095 243.61 48.6295 249.22 49.4695 250.78C51.0895 253.78 53.8595 253.37 53.7295 258.85C53.6195 263.95 48.7895 268.17 48.7895 268.17L30.1595 278.87Z" fill="#E2A340"/>
<path d="M39.4499 273.98C39.3277 273.979 39.21 273.934 39.1182 273.853C39.0264 273.772 38.9667 273.661 38.9499 273.54C37.5199 261.69 40.9499 241.23 43.7499 235.15C43.7735 235.083 43.8113 235.021 43.8607 234.969C43.91 234.918 43.9699 234.877 44.0362 234.851C44.1026 234.824 44.1738 234.812 44.2452 234.815C44.3165 234.819 44.3864 234.837 44.4499 234.87C44.5096 234.897 44.5633 234.935 44.6079 234.983C44.6524 235.031 44.6869 235.088 44.7093 235.149C44.7316 235.211 44.7414 235.276 44.7381 235.342C44.7348 235.407 44.7184 235.471 44.6899 235.53C41.9199 241.53 38.6099 262.05 39.9799 273.38C39.994 273.511 39.9556 273.643 39.8732 273.746C39.7908 273.849 39.671 273.915 39.5399 273.93L39.4499 273.98Z" fill="white"/>
<path d="M39.1799 264.75C39.1033 264.754 39.0273 264.736 38.9599 264.7C35.4899 263.01 33.2898 256.98 33.1998 256.7C33.1753 256.638 33.1636 256.571 33.1652 256.504C33.1668 256.438 33.1818 256.372 33.2094 256.311C33.2369 256.25 33.2763 256.195 33.3254 256.15C33.3744 256.104 33.4321 256.069 33.495 256.046C33.5578 256.024 33.6246 256.014 33.6914 256.017C33.7581 256.021 33.8235 256.038 33.8836 256.067C33.9438 256.096 33.9974 256.137 34.0414 256.188C34.0854 256.238 34.1189 256.296 34.1399 256.36C34.1399 256.42 36.2898 262.26 39.3998 263.77C39.5019 263.819 39.5841 263.902 39.633 264.004C39.6819 264.106 39.6946 264.222 39.669 264.333C39.6434 264.443 39.5811 264.542 39.4922 264.612C39.4033 264.682 39.2932 264.72 39.1799 264.72V264.75Z" fill="white"/>
<path d="M39.1191 268.75C39.0189 268.75 38.9211 268.719 38.8388 268.662C38.7566 268.605 38.6938 268.524 38.6591 268.43C38.6093 268.308 38.6098 268.171 38.6603 268.049C38.7109 267.928 38.8075 267.831 38.9291 267.78C44.7691 265.44 48.4091 258.49 48.4491 258.41C48.5101 258.292 48.6154 258.203 48.742 258.163C48.8686 258.122 49.006 258.134 49.1241 258.195C49.2421 258.256 49.331 258.361 49.3714 258.488C49.4117 258.615 49.4001 258.752 49.3391 258.87C49.1791 259.17 45.4891 266.23 39.3391 268.71C39.2705 268.742 39.1946 268.756 39.1191 268.75Z" fill="white"/>
<path d="M243.25 214.95C243.25 214.95 238.88 207.87 238.45 200.18C238.02 192.49 239.71 189.29 242.03 188.37C244.35 187.45 244.53 190.28 245.72 191.95C246.91 193.62 249.34 192.67 250.24 187.46C251.14 182.25 254.42 173.46 261.24 171.75C268.74 169.89 264.72 178.69 262.83 182.12C260.94 185.55 259.48 190.23 260.72 191.5C261.96 192.77 263.89 190.42 265.72 192.6C267.95 195.23 261.02 204.7 257.04 206.99L243.25 214.95Z" fill="#E2A340"/>
<path d="M249.239 211.98C249.174 211.977 249.109 211.962 249.049 211.934C248.99 211.907 248.936 211.868 248.891 211.819C248.847 211.771 248.812 211.715 248.79 211.653C248.767 211.591 248.757 211.526 248.759 211.46C249.436 199.09 253.294 187.103 259.959 176.66C259.997 176.606 260.045 176.559 260.101 176.524C260.158 176.489 260.22 176.466 260.286 176.455C260.351 176.445 260.418 176.448 260.482 176.464C260.546 176.481 260.607 176.51 260.659 176.55C260.764 176.628 260.834 176.744 260.855 176.873C260.875 177.001 260.845 177.133 260.769 177.24C254.223 187.53 250.435 199.332 249.769 211.51C249.765 211.576 249.749 211.64 249.72 211.699C249.691 211.758 249.651 211.811 249.602 211.855C249.553 211.899 249.495 211.932 249.433 211.954C249.371 211.975 249.305 211.984 249.239 211.98Z" fill="white"/>
<path d="M249.809 206.07C249.726 206.069 249.644 206.049 249.569 206.01C246.769 204.46 245.219 199.86 245.159 199.67C245.137 199.608 245.128 199.541 245.132 199.475C245.135 199.409 245.152 199.345 245.181 199.285C245.21 199.226 245.25 199.172 245.3 199.129C245.349 199.085 245.407 199.051 245.469 199.03C245.595 198.989 245.733 199 245.851 199.06C245.969 199.12 246.058 199.224 246.099 199.35C246.099 199.35 247.599 203.78 250.099 205.13C250.213 205.197 250.296 205.305 250.331 205.432C250.367 205.558 250.352 205.694 250.289 205.81C250.244 205.896 250.175 205.967 250.089 206.013C250.004 206.059 249.906 206.079 249.809 206.07Z" fill="white"/>
<path d="M250.3 203.04C250.189 203.039 250.081 203.001 249.995 202.932C249.908 202.863 249.846 202.768 249.82 202.66C249.803 202.597 249.799 202.531 249.809 202.467C249.818 202.402 249.84 202.34 249.874 202.284C249.907 202.228 249.951 202.18 250.004 202.141C250.056 202.103 250.116 202.075 250.18 202.06C257.4 200.23 259.9 196.45 259.92 196.41C259.955 196.354 260.001 196.306 260.055 196.268C260.109 196.23 260.17 196.203 260.235 196.189C260.299 196.174 260.366 196.173 260.431 196.184C260.496 196.195 260.559 196.22 260.615 196.255C260.67 196.29 260.719 196.337 260.757 196.391C260.795 196.445 260.822 196.506 260.836 196.57C260.85 196.635 260.852 196.702 260.84 196.767C260.829 196.832 260.805 196.894 260.77 196.95C260.66 197.12 258.06 201.09 250.43 203.03L250.3 203.04Z" fill="white"/>
<path d="M134.45 199.41C134.45 199.41 124.86 197.07 124.36 179.11C123.83 159.73 126.71 137.11 115.36 135.28C104.01 133.45 97.7099 147.28 97.8499 163.43C97.9799 177.57 103.68 208.27 134.41 214.29L134.45 199.41Z" fill="#E2A340"/>
<path opacity="0.2" d="M134.45 199.41C134.45 199.41 124.86 197.07 124.36 179.11C123.83 159.73 126.71 137.11 115.36 135.28C104.01 133.45 97.7099 147.28 97.8499 163.43C97.9799 177.57 103.68 208.27 134.41 214.29L134.45 199.41Z" fill="black"/>
<path d="M134.45 212.45H134.36C127.45 211.19 121.82 207.38 117.63 201.14C105.21 182.61 109.12 148.01 110.41 141.97C110.439 141.841 110.516 141.729 110.626 141.656C110.736 141.583 110.87 141.556 111 141.58C111.129 141.611 111.242 141.691 111.314 141.802C111.387 141.914 111.414 142.049 111.39 142.18C110.12 148.18 106.23 182.34 118.46 200.58C120.24 203.409 122.589 205.836 125.357 207.709C128.125 209.582 131.252 210.859 134.54 211.46C134.605 211.472 134.667 211.497 134.723 211.533C134.778 211.569 134.826 211.616 134.863 211.671C134.901 211.726 134.927 211.788 134.94 211.853C134.953 211.918 134.953 211.985 134.94 212.05C134.919 212.164 134.858 212.266 134.768 212.34C134.678 212.413 134.566 212.452 134.45 212.45Z" fill="white"/>
<path d="M134.449 258.54C124.539 259.88 108.449 259.86 99.1593 252.54C89.8693 245.22 91.8093 238.92 95.3793 236.29C98.9493 233.66 102.049 230.66 95.9093 224.82C89.7693 218.98 79.9093 209.6 76.7093 195.53C73.5093 181.46 75.0893 172.66 81.3693 169.73C87.4593 166.89 89.0693 171.41 92.7993 180.73C96.5293 190.05 104.919 182.06 112.099 184.97C119.279 187.88 118.989 193.64 119.439 198.59C119.889 203.54 122.259 204.91 126.329 204.91C130.399 204.91 134.449 207.25 134.449 211.91V258.54Z" fill="#E2A340"/>
<path d="M134.449 242.2C134.406 242.209 134.362 242.209 134.319 242.2C133.889 242.08 123.639 239.1 108.709 225.39C92.8091 210.79 85.3091 188.89 85.2291 188.67C85.1908 188.544 85.2027 188.408 85.2623 188.291C85.322 188.173 85.4247 188.083 85.5491 188.04C85.6738 187.999 85.8098 188.008 85.9277 188.066C86.0456 188.124 86.1359 188.226 86.1791 188.35C86.2491 188.57 93.6791 210.23 109.389 224.65C124.109 238.18 134.479 241.21 134.589 241.24C134.652 241.258 134.711 241.289 134.762 241.33C134.813 241.371 134.856 241.422 134.888 241.48C134.919 241.537 134.939 241.6 134.946 241.666C134.953 241.731 134.947 241.797 134.929 241.86C134.897 241.961 134.832 242.049 134.746 242.11C134.659 242.171 134.555 242.203 134.449 242.2Z" fill="white"/>
<path d="M112.879 228.87C112.779 228.872 112.68 228.841 112.598 228.784C112.515 228.727 112.453 228.645 112.419 228.55C109.209 220.31 108.479 202.68 108.419 201.93C108.416 201.798 108.465 201.67 108.554 201.573C108.644 201.476 108.767 201.418 108.899 201.41C109.03 201.412 109.155 201.462 109.251 201.55C109.347 201.639 109.407 201.76 109.419 201.89C109.419 202.07 110.169 220.1 113.319 228.19C113.343 228.252 113.355 228.317 113.353 228.384C113.352 228.45 113.337 228.515 113.31 228.576C113.283 228.636 113.244 228.691 113.196 228.736C113.148 228.781 113.091 228.817 113.029 228.84C112.981 228.857 112.93 228.867 112.879 228.87Z" fill="white"/>
<path d="M112.799 240.72C111.877 240.727 110.956 240.68 110.039 240.58C109.974 240.572 109.91 240.551 109.853 240.519C109.795 240.487 109.744 240.443 109.703 240.391C109.662 240.339 109.632 240.28 109.614 240.216C109.597 240.152 109.591 240.086 109.599 240.02C109.607 239.954 109.628 239.891 109.66 239.833C109.693 239.776 109.736 239.725 109.788 239.684C109.84 239.643 109.9 239.613 109.963 239.595C110.027 239.577 110.094 239.572 110.159 239.58C110.249 239.58 119.559 240.64 123.829 236.29C123.876 236.243 123.931 236.206 123.992 236.181C124.053 236.155 124.118 236.142 124.184 236.142C124.25 236.142 124.316 236.155 124.377 236.181C124.438 236.206 124.493 236.243 124.539 236.29C124.586 236.336 124.623 236.39 124.648 236.45C124.673 236.51 124.686 236.575 124.686 236.64C124.686 236.705 124.673 236.77 124.648 236.83C124.623 236.89 124.586 236.944 124.539 236.99C121.449 240.18 116.059 240.72 112.799 240.72Z" fill="white"/>
<path d="M105.6 51.36L104.52 45.13L98.9596 48.79C98.4515 47.79 97.7315 46.913 96.8496 46.22L99.5096 39.02L94.5096 37.91L90.8496 44.91C89.5226 45.1348 88.2356 45.5526 87.0296 46.15L85.4496 40.87L79.5096 45.54L79.8996 51.74C78.6899 53.095 77.593 54.5465 76.6196 56.08L71.7196 55.83L68.2796 63.54L72.4896 65.34C72.0501 66.9347 71.772 68.5696 71.6596 70.22L66.3096 75.14L67.3796 81.38L72.9496 77.72C73.4547 78.719 74.1754 79.5934 75.0596 80.28L72.4496 87.49L77.4496 88.59L82.6896 83.49C83.8996 83.3 83.5996 81.02 84.9196 80.37L86.5096 85.63L92.4396 80.97L92.2896 78.53C93.4896 77.19 98.0296 74.24 99.0096 72.7L100.24 70.7L103.68 62.99L102.08 60.09L100.3 56.31L105.6 51.36ZM87.4496 71.87C82.8896 75.45 81.4496 76.24 80.6796 71.45C79.9096 66.66 82.5196 59.38 87.0796 55.79C91.6396 52.2 93.3796 51.95 94.1996 56.73C95.0196 61.51 92.0196 68.33 87.4496 71.87Z" fill="#E0E0E0"/>
<path d="M94.5497 37.92L101.03 41.66L97.3697 48.63L90.8896 44.9L94.5497 37.92Z" fill="#F5F5F5"/>
<path d="M111 48.87L105.44 52.53L98.96 48.8L104.52 45.13L111 48.87Z" fill="#F5F5F5"/>
<path d="M110.11 66.71L105.9 64.91L99.4199 61.17L103.63 62.97L110.11 66.71Z" fill="#E0E0E0"/>
<path d="M72.4395 87.49L78.9194 91.23L81.5795 84.03L75.0994 80.29L72.4395 87.49Z" fill="#E0E0E0"/>
<path d="M92.9401 89.38L86.4501 85.64L84.8701 80.38L91.3501 84.12L92.9401 89.38Z" fill="#E0E0E0"/>
<path d="M112.08 55.1L111.01 48.87L105.45 52.53C104.938 51.5296 104.215 50.6526 103.33 49.96L105.99 42.76L101.04 41.65L97.3698 48.65C96.0457 48.8734 94.7618 49.2912 93.5598 49.89L91.9798 44.63L86.0398 49.3L86.4298 55.5C85.2189 56.8645 84.1219 58.3261 83.1498 59.87L78.2398 59.62L74.7999 67.33L79.0098 69.13C78.5743 70.729 78.2963 72.3668 78.1798 74.02L72.8398 78.87L73.9099 85.11L79.4698 81.45C79.9817 82.4475 80.7052 83.3211 81.5898 84.01L78.9298 91.21L83.9298 92.32L87.5898 85.32C88.9191 85.0991 90.2071 84.6776 91.4099 84.07L92.9898 89.33L98.9298 84.67L98.5398 78.47C99.7495 77.115 100.846 75.6635 101.82 74.13L106.73 74.37L110.17 66.66L105.9 64.87C106.343 63.2721 106.624 61.6339 106.74 59.98L112.08 55.1ZM93.9498 75.65C89.3998 79.23 85.0398 78.26 84.2098 73.48C83.3798 68.7 86.4098 61.91 90.9698 58.33C95.5298 54.75 99.8798 55.73 100.71 60.51C101.54 65.29 98.5098 72.07 93.9498 75.65Z" fill="#EBEBEB"/>
<path d="M91.9698 44.62L85.4798 40.88L79.5498 45.55L86.0298 49.28L91.9698 44.62Z" fill="#F5F5F5"/>
<path d="M79.5498 45.55L79.9398 51.74L86.4198 55.48L86.0298 49.28L79.5498 45.55Z" fill="#E0E0E0"/>
<path d="M83.14 59.82L76.66 56.08L71.75 55.84L78.24 59.58L83.14 59.82Z" fill="#F5F5F5"/>
<path d="M71.7496 55.84L68.3096 63.55L74.7996 67.29L78.2396 59.58L71.7496 55.84Z" fill="#E0E0E0"/>
<path d="M78.1796 73.97L71.6896 70.23L66.3496 75.15L72.8296 78.89L78.1796 73.97Z" fill="#F5F5F5"/>
<path d="M73.8996 85.12L67.4196 81.38L66.3496 75.15L72.8296 78.89L73.8996 85.12Z" fill="#E0E0E0"/>
<path d="M101.03 41.66L94.5498 37.92L99.4998 39.03L105.99 42.77L101.03 41.66Z" fill="#F5F5F5"/>
<path d="M76.5397 23.08V13.77L69.1297 17.11C68.7372 15.5304 68.0594 14.0359 67.1297 12.7L71.7997 3.28999L66.0997 -0.0100098L60.2797 8.74998C58.6578 8.60829 57.0237 8.76764 55.4597 9.21999L54.6397 1.12999L46.5797 5.78999L45.7697 14.79C44.0156 16.3443 42.4026 18.051 40.9497 19.89L35.1297 17.89L29.4297 27.77L34.0897 31.77C33.2286 33.9475 32.5594 36.196 32.0897 38.49L24.6797 43.7V53.02L32.0897 49.68C32.4822 51.2595 33.16 52.7541 34.0897 54.09L29.4497 63.51L35.1497 66.8L40.9697 58.05C42.5916 58.1912 44.2256 58.0319 45.7897 57.58L46.5997 65.67L54.6597 61.01L55.4797 52.01C57.9953 51.0921 60.2239 49.526 61.9397 47.47L66.1197 48.94L71.8197 39.07L68.3197 36.07C69.0795 33.5683 69.3611 30.9459 69.1497 28.34L76.5397 23.08ZM50.6097 46.34C44.4297 49.91 40.6097 47.34 40.6097 40.23C40.6097 33.12 45.7197 24.33 51.9097 20.76C58.0997 17.19 61.8397 19.76 61.8397 26.93C61.8397 34.1 56.7997 42.76 50.6097 46.34Z" fill="#E0E0E0"/>
<path d="M72.5795 3.74L66.0895 0L60.2695 8.75L66.7595 12.49L72.5795 3.74Z" fill="#F5F5F5"/>
<path d="M83.0199 17.52L76.5399 13.78L69.1299 17.12L75.6099 20.86L83.0199 17.52Z" fill="#F5F5F5"/>
<path d="M53.0598 69.42L46.5798 65.67L45.7598 57.59L52.2498 61.33L53.0598 69.42Z" fill="#E0E0E0"/>
<path d="M29.4199 63.52L35.9099 67.26L40.5799 57.84L34.0899 54.1L29.4199 63.52Z" fill="#E0E0E0"/>
<path d="M83.0299 26.87V17.56L75.6199 20.87C75.2315 19.289 74.5534 17.7938 73.6199 16.46L78.2899 7.05L72.5899 3.75L66.7699 12.51C65.148 12.3634 63.513 12.5228 61.9499 12.98L61.1299 4.87L53.0699 9.53001L52.2499 18.53C50.4983 20.0869 48.8856 21.7934 47.4299 23.63L41.6099 21.63L35.9099 31.51L40.5799 35.51C39.7143 37.6859 39.045 39.9349 38.5799 42.23L31.1699 47.44V56.76L38.5799 53.42C38.9681 55.0011 39.6462 56.4964 40.5799 57.83L35.9099 67.24L41.6099 70.53L47.4299 61.78C49.0518 61.9217 50.6859 61.7624 52.2499 61.31L53.0699 69.4L61.1299 64.74L61.9399 55.74C63.6941 54.1857 65.307 52.479 66.7599 50.64L72.5799 52.64L78.2799 42.77L73.6099 38.77C74.4753 36.594 75.1446 34.3451 75.6099 32.05L83.0299 26.87ZM57.0999 50.13C50.9099 53.7 45.8899 50.8 45.8899 43.66C45.8899 36.52 50.8899 27.83 57.0999 24.25C63.3099 20.67 68.2999 23.58 68.2999 30.72C68.2999 37.86 63.2799 46.5 57.0999 50.08V50.13Z" fill="#EBEBEB"/>
<path d="M40.9401 19.91L47.4301 23.65L41.6101 21.62L35.1201 17.88L40.9401 19.91Z" fill="#F0F0F0"/>
<path d="M35.1293 17.8802L29.4277 27.7635L35.9156 31.5063L41.6171 21.6229L35.1293 17.8802Z" fill="#F5F5F5"/>
<path d="M29.4199 27.76L35.9099 31.5L40.5799 35.52L34.0899 31.78L29.4199 27.76Z" fill="#E0E0E0"/>
<path d="M32.0897 38.5L38.5697 42.24L31.1597 47.46L24.6797 43.72L32.0897 38.5Z" fill="#F5F5F5"/>
<path d="M24.6797 43.72L31.1597 47.46V56.77L24.6797 53.03V43.72Z" fill="#E0E0E0"/>
<path d="M61.1301 4.87L54.6401 1.13L46.5801 5.79L53.0601 9.53L61.1301 4.87Z" fill="#F5F5F5"/>
<path d="M144.33 271.92L238.33 217.64C238.537 217.567 238.717 217.432 238.843 217.253C238.97 217.074 239.039 216.86 239.039 216.64C239.039 216.421 238.97 216.206 238.843 216.027C238.717 215.848 238.537 215.713 238.33 215.64L229.64 210.64C229.102 210.369 228.508 210.228 227.905 210.228C227.303 210.228 226.708 210.369 226.17 210.64L132.14 264.87C131.933 264.943 131.754 265.078 131.627 265.257C131.5 265.436 131.432 265.651 131.432 265.87C131.432 266.09 131.5 266.304 131.627 266.483C131.754 266.662 131.933 266.797 132.14 266.87L140.86 271.87C141.394 272.149 141.987 272.298 142.589 272.307C143.192 272.316 143.788 272.183 144.33 271.92Z" fill="#E0E0E0"/>
<path d="M235.75 8.07007L150.99 57.0101C149.73 57.8324 148.682 58.9399 147.929 60.2429C147.177 61.5459 146.742 63.0078 146.66 64.5101V265.58C146.66 268.34 148.6 269.46 150.99 268.08L235.75 219.14C237.012 218.32 238.062 217.212 238.814 215.909C239.567 214.606 240 213.143 240.08 211.64V10.5701C240.08 7.81007 238.15 6.69007 235.75 8.07007Z" fill="#686868"/>
<path d="M150.99 57.01L235.75 8.07002C237.89 6.83002 239.66 7.60002 240.02 9.75002C239.82 8.39827 239.336 7.10416 238.6 5.95283C237.865 4.80149 236.893 3.81901 235.75 3.07002L232.23 1.07002C230.888 0.389224 229.405 0.0344238 227.9 0.0344238C226.396 0.0344238 224.912 0.389224 223.57 1.07002L138.8 49.97C137.524 50.7706 136.471 51.8819 135.74 53.2L147.93 60.2C148.66 58.8923 149.714 57.7939 150.99 57.01Z" fill="#4E4E4E"/>
<path d="M134.45 258.54C134.532 260.042 134.967 261.504 135.719 262.807C136.472 264.11 137.52 265.218 138.78 266.04L142.31 268.04C143.532 268.651 144.869 268.997 146.234 269.056C147.599 269.115 148.961 268.884 150.23 268.38C148.23 269.16 146.64 268.01 146.64 265.54V64.51C146.69 63.0013 147.128 61.5308 147.91 60.24L135.72 53.24C134.949 54.5211 134.512 55.9758 134.45 57.47V258.54Z" fill="#2F2F2F"/>
<path d="M153.32 83.8L233.45 37.55C234.89 36.73 236.05 37.4 236.05 39.05V187.87C236.002 188.772 235.741 189.65 235.29 190.432C234.838 191.214 234.207 191.878 233.45 192.37L153.35 238.62C151.91 239.45 150.75 238.78 150.75 237.12V88.3C150.795 87.401 151.052 86.5252 151.498 85.7435C151.945 84.9618 152.569 84.296 153.32 83.8Z" fill="white"/>
<path d="M193.37 40.16C192.927 40.4504 192.559 40.8405 192.295 41.2991C192.031 41.7576 191.879 42.2717 191.85 42.8C191.85 43.8 192.53 44.17 193.37 43.68C193.814 43.3914 194.183 43.0017 194.447 42.5428C194.711 42.0839 194.863 41.5689 194.89 41.04C194.89 40.07 194.21 39.68 193.37 40.16Z" fill="#4E4E4E"/>
<path d="M193.37 222.61C191.622 223.754 190.168 225.293 189.125 227.103C188.083 228.914 187.482 230.944 187.37 233.03C187.37 236.86 190.06 238.42 193.37 236.5C195.118 235.356 196.571 233.816 197.614 232.006C198.656 230.196 199.258 228.166 199.37 226.08C199.39 222.25 196.69 220.69 193.37 222.61Z" fill="#4E4E4E"/>
<path d="M178.98 55.64C178.102 56.2234 177.372 57.0052 176.851 57.9224C176.33 58.8396 176.032 59.8664 175.98 60.92C175.98 62.86 177.34 63.65 178.98 62.68C179.869 62.1021 180.608 61.3227 181.138 60.4052C181.668 59.4877 181.974 58.4581 182.03 57.4C182.03 55.46 180.67 54.67 178.98 55.64Z" fill="#4E4E4E"/>
<path d="M186.45 54.9801C186.45 56.2801 187.45 56.7701 188.62 56.0801L208.62 44.51C209.24 44.1231 209.759 43.5954 210.136 42.9699C210.513 42.3443 210.737 41.6386 210.79 40.9101C210.79 39.6201 209.79 39.13 208.62 39.82L188.62 51.3901C188.002 51.776 187.483 52.3021 187.106 52.9258C186.729 53.5495 186.505 54.2533 186.45 54.9801Z" fill="#4E4E4E"/>
<path d="M141.21 90.24C141.92 90.7023 142.511 91.3252 142.935 92.0584C143.359 92.7916 143.604 93.6144 143.65 94.46C143.65 96.02 142.56 96.65 141.21 95.87C140.503 95.4061 139.915 94.7825 139.493 94.0495C139.071 93.3165 138.827 92.4946 138.78 91.65C138.78 90.1 139.87 89.47 141.21 90.24Z" fill="#4E4E4E"/>
<path d="M141.21 109.02C141.92 109.482 142.511 110.105 142.935 110.838C143.359 111.572 143.604 112.394 143.65 113.24C143.65 114.79 142.56 115.42 141.21 114.65C140.503 114.186 139.915 113.562 139.493 112.829C139.071 112.096 138.827 111.275 138.78 110.43C138.78 108.87 139.87 108.24 141.21 109.02Z" fill="#4E4E4E"/>
<path d="M140.45 90.62C141.159 91.0822 141.75 91.7052 142.174 92.4384C142.598 93.1716 142.843 93.9943 142.89 94.84C142.89 96.39 141.8 97.02 140.45 96.25C139.74 95.7877 139.149 95.1648 138.725 94.4316C138.302 93.6984 138.056 92.8756 138.01 92.03C138.02 90.47 139.11 89.87 140.45 90.62Z" fill="#686868"/>
<path d="M140.45 109.39C141.161 109.853 141.752 110.478 142.176 111.213C142.6 111.948 142.845 112.773 142.89 113.62C142.89 115.17 141.8 115.8 140.45 115.02C139.738 114.56 139.146 113.937 138.722 113.203C138.298 112.47 138.054 111.646 138.01 110.8C138.02 109.25 139.11 108.62 140.45 109.39Z" fill="#686868"/>
<path d="M252.27 43.76C252.27 42.1 251.11 41.43 249.67 42.26L240.08 47.79L169.57 88.51C168.812 89.0021 168.182 89.6663 167.73 90.4483C167.278 91.2303 167.018 92.1081 166.97 93.01V241.79C166.97 243.45 168.13 244.12 169.57 243.29L240.11 202.56L249.67 197.04C250.427 196.548 251.057 195.884 251.509 195.102C251.961 194.32 252.222 193.442 252.27 192.54V43.76Z" fill="white" stroke="#E2A340" stroke-miterlimit="10"/>
<path d="M168.45 244.15C168.097 244.155 167.75 244.057 167.45 243.87C167.109 243.638 166.837 243.319 166.661 242.946C166.485 242.574 166.412 242.16 166.45 241.75V93.01C166.496 92.0202 166.779 91.0558 167.274 90.1979C167.77 89.34 168.465 88.6137 169.3 88.08L239.81 47.36L240.31 48.23L169.8 88.94C169.12 89.3904 168.554 89.9923 168.146 90.6986C167.738 91.4048 167.5 92.1961 167.45 93.01V241.79C167.381 242.026 167.393 242.279 167.485 242.508C167.576 242.737 167.742 242.928 167.955 243.051C168.168 243.175 168.417 243.223 168.661 243.188C168.904 243.153 169.13 243.038 169.3 242.86L239.84 202.13L240.34 203L169.8 243.73C169.392 243.98 168.928 244.124 168.45 244.15Z" fill="#E2A340" stroke="#E2A340" stroke-miterlimit="10"/>
<path d="M240.36 203L239.86 202.13L249.42 196.61C250.1 196.16 250.666 195.558 251.074 194.852C251.482 194.145 251.72 193.354 251.77 192.54V43.76C251.839 43.5236 251.827 43.2708 251.736 43.0422C251.644 42.8135 251.478 42.6221 251.265 42.4988C251.052 42.3755 250.803 42.3273 250.56 42.362C250.316 42.3966 250.09 42.5122 249.92 42.69L240.33 48.23L239.83 47.36L249.45 41.87C249.775 41.6058 250.173 41.4465 250.59 41.4131C251.008 41.3797 251.426 41.4737 251.789 41.6829C252.152 41.892 252.443 42.2063 252.623 42.5843C252.804 42.9624 252.866 43.3863 252.8 43.8V192.54C252.753 193.531 252.47 194.497 251.975 195.356C251.479 196.215 250.785 196.944 249.95 197.48L240.36 203Z" fill="#E2A340" stroke="#E2A340" stroke-miterlimit="10"/>
<path d="M209.62 78.33C218.62 73.15 225.87 77.33 225.87 87.72C225.87 98.11 218.59 110.72 209.62 115.86C200.65 121 193.37 116.86 193.37 106.48C193.37 96.1 200.65 83.52 209.62 78.33Z" fill="#E2A340"/>
<path d="M209.62 86.49C212.53 84.81 214.89 86.17 214.89 89.49C214.791 91.319 214.262 93.0989 213.346 94.6852C212.431 96.2715 211.154 97.6196 209.62 98.62C206.71 100.3 204.35 98.94 204.35 95.62C204.448 93.791 204.977 92.0112 205.893 90.4248C206.809 88.8385 208.085 87.4904 209.62 86.49Z" fill="#E2A340"/>
<path d="M219.89 104.41C219.89 98.89 216.02 96.65 211.23 99.41L208.23 101.14C203.45 103.9 199.57 110.62 199.57 116.14V117.63C202.34 118.54 205.82 118.05 209.57 115.86C213.724 113.298 217.237 109.819 219.84 105.69L219.89 104.41Z" fill="#E2A340"/>
<path opacity="0.7" d="M209.62 86.49C212.53 84.81 214.89 86.17 214.89 89.49C214.791 91.319 214.262 93.0989 213.346 94.6852C212.431 96.2715 211.154 97.6196 209.62 98.62C206.71 100.3 204.35 98.94 204.35 95.62C204.448 93.791 204.977 92.0112 205.893 90.4248C206.809 88.8385 208.085 87.4904 209.62 86.49Z" fill="white"/>
<path opacity="0.7" d="M219.89 104.41C219.89 98.89 216.02 96.65 211.23 99.41L208.23 101.14C203.45 103.9 199.57 110.62 199.57 116.14V117.63C202.34 118.54 205.82 118.05 209.57 115.86C213.724 113.298 217.237 109.819 219.84 105.69L219.89 104.41Z" fill="white"/>
<path d="M178.18 138.71L199.09 126.64C200.09 126.09 200.82 126.53 200.82 127.64V128.33C200.789 128.931 200.615 129.516 200.315 130.037C200.014 130.559 199.595 131.002 199.09 131.33L178.18 143.4C177.23 143.95 176.45 143.5 176.45 142.4V141.71C176.483 141.109 176.656 140.525 176.957 140.003C177.257 139.482 177.676 139.039 178.18 138.71Z" fill="#E2A340"/>
<path opacity="0.1" d="M178.18 138.71L199.09 126.64C200.09 126.09 200.82 126.53 200.82 127.64V128.33C200.789 128.931 200.615 129.516 200.315 130.037C200.014 130.559 199.595 131.002 199.09 131.33L178.18 143.4C177.23 143.95 176.45 143.5 176.45 142.4V141.71C176.483 141.109 176.656 140.525 176.957 140.003C177.257 139.482 177.676 139.039 178.18 138.71Z" fill="black"/>
<path d="M177.32 153.28L240.58 116.76C241.05 116.48 241.44 116.7 241.44 117.26V124.64C241.423 124.94 241.336 125.231 241.187 125.491C241.037 125.751 240.83 125.974 240.58 126.14L177.32 162.66C176.84 162.94 176.45 162.71 176.45 162.16V154.78C176.467 154.479 176.555 154.187 176.706 153.926C176.857 153.666 177.068 153.444 177.32 153.28Z" fill="#E2A340"/>
<path opacity="0.2" d="M177.32 153.28L240.58 116.76C241.05 116.48 241.44 116.7 241.44 117.26V124.64C241.423 124.94 241.336 125.231 241.187 125.491C241.037 125.751 240.83 125.974 240.58 126.14L177.32 162.66C176.84 162.94 176.45 162.71 176.45 162.16V154.78C176.467 154.479 176.555 154.187 176.706 153.926C176.857 153.666 177.068 153.444 177.32 153.28Z" fill="white"/>
<path d="M178.18 171.54L199.09 159.47C200.09 158.92 200.82 159.37 200.82 160.47V161.16C200.789 161.761 200.616 162.346 200.316 162.868C200.015 163.389 199.595 163.832 199.09 164.16L178.18 176.23C177.23 176.79 176.45 176.34 176.45 175.23V174.54C176.484 173.94 176.658 173.355 176.959 172.835C177.259 172.314 177.678 171.87 178.18 171.54Z" fill="#E2A340"/>
<path opacity="0.1" d="M178.18 171.54L199.09 159.47C200.09 158.92 200.82 159.37 200.82 160.47V161.16C200.789 161.761 200.616 162.346 200.316 162.868C200.015 163.389 199.595 163.832 199.09 164.16L178.18 176.23C177.23 176.79 176.45 176.34 176.45 175.23V174.54C176.484 173.94 176.658 173.355 176.959 172.835C177.259 172.314 177.678 171.87 178.18 171.54Z" fill="black"/>
<path d="M177.32 186.11L240.58 149.59C241.05 149.31 241.44 149.54 241.44 150.09V157.47C241.423 157.77 241.336 158.061 241.187 158.321C241.037 158.581 240.83 158.804 240.58 158.97L177.32 195.49C176.84 195.77 176.45 195.55 176.45 194.99V187.61C176.467 187.309 176.555 187.017 176.706 186.756C176.857 186.496 177.068 186.274 177.32 186.11Z" fill="#E2A340"/>
<path opacity="0.2" d="M177.32 186.11L240.58 149.59C241.05 149.31 241.44 149.54 241.44 150.09V157.47C241.423 157.77 241.336 158.061 241.187 158.321C241.037 158.581 240.83 158.804 240.58 158.97L177.32 195.49C176.84 195.77 176.45 195.55 176.45 194.99V187.61C176.467 187.309 176.555 187.017 176.706 186.756C176.857 186.496 177.068 186.274 177.32 186.11Z" fill="white"/>
<path d="M202.55 190.3L227.55 175.89C228.55 175.33 229.29 175.78 229.29 176.89V184.61C229.258 185.212 229.083 185.797 228.78 186.319C228.478 186.84 228.056 187.283 227.55 187.61L202.55 202.03C201.55 202.58 200.82 202.13 200.82 201.03V193.3C200.855 192.7 201.03 192.116 201.33 191.595C201.63 191.074 202.048 190.631 202.55 190.3Z" fill="#E2A340"/>
<path opacity="0.1" d="M202.55 190.3L227.55 175.89C228.55 175.33 229.29 175.78 229.29 176.89V184.61C229.258 185.212 229.083 185.797 228.78 186.319C228.478 186.84 228.056 187.283 227.55 187.61L202.55 202.03C201.55 202.58 200.82 202.13 200.82 201.03V193.3C200.855 192.7 201.03 192.116 201.33 191.595C201.63 191.074 202.048 190.631 202.55 190.3Z" fill="black"/>
<path d="M261.75 157.72C261.75 157.72 249.47 140.78 248.75 138.72C248.18 137.2 248.75 134.94 248.93 133.89C249.11 132.84 249.27 130.5 249.45 129.89C249.75 128.75 248.28 128.98 247.45 130.02C246.62 131.06 246.34 133.14 245.91 133.48C245.48 133.82 242.21 129.05 240.5 126.85C238.79 124.65 237.72 123.31 236.67 124.13C235.92 124.72 236.48 126 237.72 127.88C238.444 128.892 239.112 129.944 239.72 131.03C239.91 131.44 238.89 131.47 238.34 132.32C237.91 132.98 238.34 134.05 237.74 134.56C237.37 134.841 237.117 135.248 237.029 135.703C236.94 136.159 237.022 136.631 237.26 137.03C238.373 138.778 239.808 140.298 241.49 141.51C243.33 142.78 244.07 143.23 245.16 144.96C246.25 146.69 256.03 164.36 256.69 165.42C257.35 166.48 258.62 168.64 260.55 168.7C262.48 168.76 278.28 155.16 279.09 154.48C281.69 152.31 282.52 151.99 282.96 153.95C283.112 154.643 283.225 155.344 283.3 156.05C283.61 158.53 285.3 167.39 285.3 167.39C285.3 167.39 293.3 171.26 299.87 169.39C306.44 167.52 308.66 164.73 308.66 164.73L305.37 159.37C306.26 157.16 310.37 148.2 311.7 141.93L291.1 138.6C290.68 138.51 290 138.34 289.1 138.11C287.97 137.81 285.1 136.82 282.93 138.72C275.85 144.89 261.77 157.72 261.77 157.72" fill="#FFA8A7"/>
<path d="M302.589 261.66L298.899 266.79C300.576 267.573 302.409 267.966 304.259 267.94C307.569 268.06 308.479 266.94 308.599 266.72C309.159 265.52 308.289 263.36 308.049 261.5L302.589 261.66Z" fill="#4E4E4E"/>
<path d="M299.109 264.33C299.109 264.33 294.629 264.04 291.539 263.66C288.449 263.28 285.999 264.78 286.719 266.05C287.439 267.32 289.149 268.38 291.809 269.27C294.079 270.04 296.809 270.59 299.169 271.27C301.529 271.95 303.169 272.84 304.539 272.36C306.069 271.83 306.729 271.22 306.599 270.1C306.265 268.507 305.852 266.932 305.359 265.38L299.109 264.33Z" fill="#4E4E4E"/>
<path d="M308.599 256.51C308.599 256.51 308.039 261.17 307.999 262.17C307.959 263.17 303.449 263.49 302.589 261.66L302.449 255.96L308.599 256.51Z" fill="#F28F8F"/>
<path d="M304.06 259.37L305.67 266.45C305.67 266.45 305.82 267.31 302.14 267.86C298.46 268.41 292.68 265.93 291.69 265.43C290.7 264.93 290.59 263.92 294.21 264.12C297.83 264.32 299.11 264.33 299.11 264.33L297.93 261.2L304.06 259.37Z" fill="#FFA8A7"/>
<path d="M311.64 141.87L314.19 141.16C314.19 141.16 319.52 158.03 320.11 159.66C320.7 161.29 321.37 163.01 320.22 165.02C318.85 167.41 311.64 177.02 311.64 177.02L307.06 172.54L312.26 163.02L307.66 153.72L311.64 141.87Z" fill="#F28F8F"/>
<path d="M285.449 119.96C284.851 118.838 284.548 117.582 284.567 116.311C284.587 115.039 284.928 113.794 285.559 112.69C288.099 107.98 293.759 105.69 300.499 106.56C303.619 106.97 307.299 109.56 309.309 113.43C311.529 117.72 311.739 126.36 312.309 129.63L285.449 119.96Z" fill="#4E4E4E"/>
<path d="M285.27 121.81C285.27 121.81 283.67 124.86 283.95 125.14C284.365 125.382 284.818 125.551 285.29 125.64L285.27 121.81Z" fill="#FFA8A7"/>
<path d="M290.129 112.17C288.389 113.3 285.389 115.38 285.259 122.23C285.119 129.23 286.119 131.54 287.159 132.35C287.859 132.9 291.969 132.62 293.729 132.21C295.489 131.8 300.559 129.29 302.389 125.48C304.539 121 304.099 114.48 300.909 112.48C299.286 111.52 297.445 110.988 295.559 110.934C293.674 110.879 291.805 111.305 290.129 112.17Z" fill="#FFA8A7"/>
<path d="M308.6 164.69C311.68 169.49 314.6 173.69 315.24 179.11C316.56 190.5 312.24 203.52 311.31 211.95C313.059 214.348 314.067 217.206 314.21 220.17C314.21 223.66 308.6 256.51 308.6 256.51C308.6 256.51 304.52 257.75 302.45 255.96L298.6 195.53L300.6 188.17L308.6 164.69Z" fill="#E2A340"/>
<path opacity="0.2" d="M308.6 164.69C311.68 169.49 314.6 173.69 315.24 179.11C316.56 190.5 312.24 203.52 311.31 211.95C313.059 214.348 314.067 217.206 314.21 220.17C314.21 223.66 308.6 256.51 308.6 256.51C308.6 256.51 304.52 257.75 302.45 255.96L298.6 195.53L300.6 188.17L308.6 164.69Z" fill="black"/>
<path d="M298.6 195.53L300.6 188.17C304.429 187.162 308.122 185.695 311.6 183.8C311.6 183.8 309.52 187.59 303.54 189.67L300.45 199.12L300.19 220.77L298.6 195.53Z" fill="#E2A340"/>
<path opacity="0.3" d="M298.6 195.53L300.6 188.17C304.429 187.162 308.122 185.695 311.6 183.8C311.6 183.8 309.52 187.59 303.54 189.67L300.45 199.12L300.19 220.77L298.6 195.53Z" fill="black"/>
<path d="M308.599 164.69C310.249 167.39 314.189 171.99 313.349 176.42C312.349 181.78 309.449 185.55 300.629 188.17L292.349 218.17C292.349 218.17 296.659 222.17 297.979 226.04C299.299 229.91 304.059 259.39 304.059 259.39C304.059 259.39 302.579 261.8 297.929 261.22C297.929 261.22 281.719 224.22 280.579 221.81C279.196 219.369 278.711 216.521 279.209 213.76C279.719 209.88 285.209 167.41 285.209 167.41L308.599 164.69Z" fill="#E2A340"/>
<path opacity="0.2" d="M308.599 164.69C310.249 167.39 314.189 171.99 313.349 176.42C312.349 181.78 309.449 185.55 300.629 188.17L292.349 218.17C292.349 218.17 296.659 222.17 297.979 226.04C299.299 229.91 304.059 259.39 304.059 259.39C304.059 259.39 302.579 261.8 297.929 261.22C297.929 261.22 281.719 224.22 280.579 221.81C279.196 219.369 278.711 216.521 279.209 213.76C279.719 209.88 285.209 167.41 285.209 167.41L308.599 164.69Z" fill="black"/>
<path d="M311.64 141.87L291.04 138.54C290.62 138.45 289.94 138.28 289.04 138.05C289.04 138.05 288.16 150.97 282.87 153.93C283 154.55 283.11 155.24 283.21 156.03C283.52 158.51 285.21 167.37 285.21 167.37C285.21 167.37 293.21 171.24 299.78 169.37C306.35 167.5 308.57 164.71 308.57 164.71L305.28 159.35C306.2 157.12 310.34 148.16 311.64 141.87Z" fill="#E2A340"/>
<path opacity="0.7" d="M311.64 141.87L291.04 138.54C290.62 138.45 289.94 138.28 289.04 138.05C289.04 138.05 288.16 150.97 282.87 153.93C283 154.55 283.11 155.24 283.21 156.03C283.52 158.51 285.21 167.37 285.21 167.37C285.21 167.37 293.21 171.24 299.78 169.37C306.35 167.5 308.57 164.71 308.57 164.71L305.28 159.35C306.2 157.12 310.34 148.16 311.64 141.87Z" fill="white"/>
<path d="M306.21 157.22C303.474 158.863 300.608 160.278 297.64 161.45C300.333 161.396 302.971 160.667 305.31 159.33L306.21 157.22Z" fill="#E2A340"/>
<path d="M289.62 112.51C289.62 112.51 288.62 119.01 290.98 122.83C290.98 122.83 291.86 120.24 294.05 120.73C296.24 121.22 296.36 124.11 294.82 125.73C294.427 126.185 293.913 126.521 293.338 126.697C292.764 126.874 292.151 126.886 291.57 126.73C291.57 126.73 291.23 131.43 291.04 135.37C290.85 139.31 289.81 147.9 294.24 151.37C298.67 154.84 309.79 156.06 315 148.78C317.9 144.73 314.05 137.57 312.26 129.54C310.61 122.16 309.68 111.22 301.85 109.46C294.02 107.7 289.62 112.51 289.62 112.51Z" fill="#4E4E4E"/>
<path d="M318.35 23.7L316.7 24.7C316.839 24.1129 316.916 23.513 316.93 22.91C316.93 19.56 314.58 18.21 311.68 19.91C310.798 20.4424 310.01 21.1183 309.35 21.91C309.35 17.41 306.19 15.58 302.29 17.83C300.235 19.1703 298.525 20.9761 297.298 23.101C296.072 25.2259 295.363 27.6101 295.23 30.06C295.23 30.29 295.23 30.51 295.23 30.73C294.226 30.6036 293.209 30.8374 292.36 31.39C290.832 32.3857 289.56 33.7278 288.648 35.3072C287.736 36.8866 287.209 38.6588 287.11 40.48C287.11 40.9034 287.153 41.3257 287.24 41.74L286.36 42.25C283.97 43.63 282.03 46.32 282.03 48.25C282.03 50.18 283.97 50.64 286.36 49.25L318.36 30.8C320.75 29.42 322.69 26.73 322.69 24.8C322.69 22.87 320.74 22.31 318.35 23.7Z" fill="#EBEBEB"/>
</g>
<defs>
<clipPath id="clip0_207_434">
<rect width="352.89" height="327.75" fill="white"/>
</clipPath>
</defs>
</svg>
